<svg width="225" height="73" fill="none" xmlns="http://www.w3.org/2000/svg"><path d="M10 65.3c-1.44 0-2.72-.18-3.84-.54-1.12-.36-2.17-.97-3.15-1.83-.54-.48-.81-1.01-.81-1.59 0-.46.17-.86.51-1.2.34-.36.75-.54 1.23-.54.38 0 .72.12 1.02.36.8.66 1.58 1.14 2.34 1.44.76.3 1.66.45 2.7.45 1.12 0 2.08-.25 2.88-.75.82-.5 1.23-1.12 1.23-1.86 0-.9-.4-1.6-1.2-2.1-.8-.52-2.07-.91-3.81-1.17-4.38-.64-6.57-2.68-6.57-6.12 0-1.26.33-2.35.99-3.27.66-.94 1.56-1.65 2.7-2.13 1.14-.5 2.41-.75 3.81-.75 1.26 0 2.44.19 3.54.57 1.12.38 2.05.88 2.79 1.5.58.46.87.99.87 1.59 0 .46-.17.87-.51 1.23-.34.34-.74.51-1.2.51-.3 0-.57-.09-.81-.27-.52-.42-1.25-.8-2.19-1.14-.92-.36-1.75-.54-2.49-.54-1.26 0-2.24.24-2.94.72-.68.46-1.02 1.07-1.02 1.83 0 .86.35 1.51 1.05 1.95.72.44 1.84.8 3.36 1.08 1.72.3 3.09.69 4.11 1.17 1.04.46 1.82 1.1 2.34 1.92.52.8.78 1.87.78 3.21 0 1.26-.36 2.37-1.08 3.33-.7.94-1.64 1.67-2.82 2.19-1.18.5-2.45.75-3.81.75zm39.36-21.33c.5 0 .93.18 1.29.54.38.34.57.77.57 1.29v17.37c0 .52-.17.96-.51 1.32-.34.34-.79.51-1.35.51s-1.02-.17-1.38-.51c-.34-.34-.51-.78-.51-1.32V51.08l-4.95 7.56c-.2.24-.43.44-.69.6-.26.14-.53.2-.81.18-.26.02-.52-.04-.78-.18-.26-.16-.49-.36-.69-.6l-4.95-7.83v12.36c0 .54-.16.98-.48 1.32-.32.34-.74.51-1.26.51-.5 0-.91-.17-1.23-.51-.32-.36-.48-.8-.48-1.32V45.8c0-.5.18-.93.54-1.29a1.897 1.897 0 012.25-.3c.3.14.53.33.69.57l6.54 10.05 6.72-10.05c.16-.24.37-.43.63-.57.28-.16.56-.24.84-.24zM85.05 54.5c0 1.98-.44 3.8-1.32 5.46a10.1 10.1 0 01-3.66 3.9c-1.54.96-3.28 1.44-5.22 1.44s-3.69-.48-5.25-1.44c-1.54-.96-2.75-2.26-3.63-3.9-.86-1.66-1.29-3.48-1.29-5.46s.43-3.79 1.29-5.43c.88-1.66 2.09-2.97 3.63-3.93 1.56-.96 3.31-1.44 5.25-1.44s3.68.48 5.22 1.44c1.56.96 2.78 2.27 3.66 3.93.88 1.64 1.32 3.45 1.32 5.43zm-3.9 0c0-1.34-.27-2.55-.81-3.63-.54-1.1-1.29-1.97-2.25-2.61-.96-.64-2.04-.96-3.24-.96-1.22 0-2.31.32-3.27.96-.94.62-1.68 1.48-2.22 2.58-.52 1.1-.78 2.32-.78 3.66 0 1.34.26 2.56.78 3.66.54 1.1 1.28 1.97 2.22 2.61.96.62 2.05.93 3.27.93 1.2 0 2.28-.32 3.24-.96.96-.64 1.71-1.5 2.25-2.58.54-1.1.81-2.32.81-3.66zm36.664 0c0 1.98-.44 3.8-1.32 5.46a10.1 10.1 0 01-3.66 3.9c-1.54.96-3.28 1.44-5.22 1.44s-3.69-.48-5.25-1.44c-1.54-.96-2.75-2.26-3.63-3.9-.86-1.66-1.29-3.48-1.29-5.46s.43-3.79 1.29-5.43c.88-1.66 2.09-2.97 3.63-3.93 1.56-.96 3.31-1.44 5.25-1.44s3.68.48 5.22 1.44c1.56.96 2.78 2.27 3.66 3.93.88 1.64 1.32 3.45 1.32 5.43zm-3.9 0c0-1.34-.27-2.55-.81-3.63-.54-1.1-1.29-1.97-2.25-2.61-.96-.64-2.04-.96-3.24-.96-1.22 0-2.31.32-3.27.96-.94.62-1.68 1.48-2.22 2.58-.52 1.1-.78 2.32-.78 3.66 0 1.34.26 2.56.78 3.66.54 1.1 1.28 1.97 2.22 2.61.96.62 2.05.93 3.27.93 1.2 0 2.28-.32 3.24-.96.96-.64 1.71-1.5 2.25-2.58.54-1.1.81-2.32.81-3.66zM144.472 44c.54 0 .98.16 1.32.48.34.32.51.74.51 1.26s-.17.94-.51 1.26c-.34.3-.78.45-1.32.45h-4.71v15.72c0 .52-.19.96-.57 1.32-.38.34-.85.51-1.41.51-.56 0-1.02-.17-1.38-.51-.36-.36-.54-.8-.54-1.32V47.45h-4.71c-.54 0-.98-.16-1.32-.48-.34-.32-.51-.74-.51-1.26 0-.5.17-.91.51-1.23.36-.32.8-.48 1.32-.48h13.32zm30.189 0c.56 0 1.01.17 1.35.51.34.34.51.78.51 1.32v17.34c0 .52-.18.96-.54 1.32-.36.34-.82.51-1.38.51-.5 0-.93-.17-1.29-.51-.36-.36-.54-.8-.54-1.32v-6.99h-9.57v6.99c0 .52-.19.96-.57 1.32-.38.34-.82.51-1.32.51-.54 0-.99-.17-1.35-.51-.34-.36-.51-.8-.51-1.32V45.83c0-.52.18-.95.54-1.29.36-.36.82-.54 1.38-.54.5 0 .93.18 1.29.54.36.34.54.77.54 1.29v6.9h9.57v-6.9c0-.52.19-.95.57-1.29.38-.36.82-.54 1.32-.54zm20.103 19.17c0 .52-.19.96-.57 1.32-.38.34-.82.51-1.32.51-.54 0-.99-.17-1.35-.51-.34-.36-.51-.8-.51-1.32V45.83c0-.52.18-.95.54-1.29.36-.36.82-.54 1.38-.54.5 0 .93.18 1.29.54.36.34.54.77.54 1.29v17.34zm26.391-1.62c.52 0 .95.18 1.29.54.36.34.54.74.54 1.2 0 .5-.18.91-.54 1.23-.34.32-.77.48-1.29.48h-10.05c-.52 0-.96-.17-1.32-.51-.34-.36-.51-.8-.51-1.32V45.83c0-.52.17-.95.51-1.29.36-.36.8-.54 1.32-.54h10.05c.52 0 .95.17 1.29.51.36.32.54.74.54 1.26 0 .5-.17.91-.51 1.23-.34.3-.78.45-1.32.45h-8.13v5.1h6.78c.52 0 .95.17 1.29.51.36.32.54.74.54 1.26 0 .5-.17.91-.51 1.23-.34.3-.78.45-1.32.45h-6.78v5.55h8.13z" fill="#fff"/><path d="M6.16 64.76l-.612 1.904.612-1.904zm-3.15-1.83l-1.329 1.495.01.008L3.01 62.93zm-.3-2.79l1.414 1.414.02-.02.02-.02L2.71 60.14zm2.25-.18l1.273-1.543-.012-.01-.012-.009L4.96 59.96zm7.92 1.14l-1.041-1.708-.01.006-.009.006 1.06 1.696zm.03-3.96l-1.09 1.677.015.01.015.009 1.06-1.696zM9.1 55.97l.296-1.978-.007-.001L9.1 55.97zm-5.58-9.39l1.625 1.166.006-.008.006-.009L3.52 46.58zm2.7-2.13l.776 1.843.014-.005.013-.006-.803-1.832zm7.35-.18l-.653 1.89.01.004.643-1.894zm2.79 1.5l-1.284 1.533.02.017.021.017 1.243-1.567zm.36 2.82l1.414 1.414.02-.02.02-.02-1.454-1.374zm-2.01.24l-1.257 1.556.028.022.029.022 1.2-1.6zm-2.19-1.14l-.729 1.863.024.009.025.009.68-1.881zm-5.43.18l1.12 1.657.011-.008L7.09 47.87zm.03 3.78l-1.064 1.693.01.007.011.007L7.12 51.65zm3.36 1.08l-.362 1.967.009.002.01.001.343-1.97zm4.11 1.17l-.852 1.81.022.01.021.01.809-1.83zm2.34 1.92l-1.689 1.071.006.01.006.009 1.677-1.09zm-.3 6.54l-1.6-1.2-.004.006 1.604 1.194zm-2.82 2.19l.78 1.841.013-.005.014-.006-.807-1.83zM10 63.3c-1.277 0-2.344-.16-3.228-.444l-1.224 3.808c1.356.436 2.849.636 4.452.636v-4zm-3.228-.444c-.832-.268-1.646-.73-2.443-1.43l-2.638 3.007c1.163 1.021 2.45 1.779 3.857 2.231l1.224-3.808zm-2.433-1.42a.705.705 0 01-.154-.171l.003.007a.191.191 0 01.012.068h-4c0 1.287.627 2.326 1.481 3.085l2.658-2.99zM4.2 61.34a.377.377 0 01-.032.137c-.025.06-.052.085-.044.077l-2.828-2.828A3.64 3.64 0 00.2 61.34h4zm-.036.173c.006-.006-.023.025-.088.053a.372.372 0 01-.136.034v-4c-1.05 0-1.98.421-2.684 1.167l2.908 2.746zm-.224.087a.397.397 0 01-.23-.078l2.5-3.124a3.589 3.589 0 00-2.27-.798v4zm-.253-.097c.92.759 1.88 1.363 2.879 1.757l1.468-3.72c-.52-.206-1.122-.562-1.801-1.123l-2.546 3.086zm2.879 1.757c1.048.414 2.208.59 3.434.59v-4c-.854 0-1.494-.124-1.966-.31l-1.468 3.72zm3.434.59c1.424 0 2.767-.32 3.94-1.054l-2.12-3.392c-.427.267-1.004.446-1.82.446v4zm3.921-1.042c1.214-.74 2.189-1.923 2.189-3.568h-4v-.004l.001-.01a.221.221 0 01.007-.03.216.216 0 01.016-.04c-.003.005-.066.096-.295.236l2.082 3.416zm2.189-3.568c0-1.629-.79-2.952-2.14-3.796l-2.12 3.392c.168.105.213.178.223.196.008.014.037.065.037.208h4zM14 55.463c-1.166-.758-2.78-1.199-4.604-1.471l-.592 3.956c1.657.248 2.582.587 3.016.869L14 55.463zm-4.61-1.472c-1.971-.288-3.168-.855-3.854-1.494-.627-.584-1.006-1.391-1.006-2.647h-4c0 2.184.716 4.117 2.28 5.573 1.503 1.4 3.591 2.174 6 2.526l.58-3.958zM4.53 49.85c0-.891.226-1.562.615-2.104l-3.25-2.332C.964 46.712.53 48.221.53 49.85h4zm.627-2.12c.427-.61 1.018-1.09 1.84-1.437l-1.553-3.686c-1.459.614-2.668 1.552-3.56 2.824l3.273 2.298zm1.866-1.448c.857-.376 1.849-.582 3.007-.582v-4c-1.642 0-3.19.294-4.613.918l1.606 3.664zm3.007-.582c1.056 0 2.014.159 2.887.46l1.306-3.78a12.767 12.767 0 00-4.193-.68v4zm2.897.464c.937.318 1.636.71 2.149 1.139l2.568-3.066c-.967-.81-2.128-1.419-3.431-1.861l-1.286 3.788zm2.19 1.173c.127.1.15.151.141.135a.253.253 0 01-.028-.112h4c0-1.352-.692-2.415-1.627-3.157l-2.486 3.134zm.113.023c0-.009 0-.026.005-.048a.35.35 0 01.02-.066c.018-.044.033-.053.011-.03l2.908 2.747c.661-.7 1.056-1.591 1.056-2.603h-4zm.076-.184c-.008.008.017-.019.077-.044a.377.377 0 01.137-.032v4a3.64 3.64 0 002.614-1.096l-2.828-2.828zm.214-.076a.662.662 0 01.39.13l-2.4 3.2c.586.44 1.277.67 2.01.67v-4zm.447.174c-.756-.61-1.71-1.083-2.767-1.465l-1.36 3.762c.824.298 1.33.585 1.613.815l2.514-3.112zm-2.718-1.447c-1.08-.422-2.161-.677-3.219-.677v4c.422 0 1 .105 1.761.403l1.458-3.725zm-3.219-.677c-1.479 0-2.913.276-4.071 1.07l2.262 3.3c.242-.166.768-.37 1.809-.37v-4zm-4.06 1.063c-1.178.797-1.9 2.002-1.9 3.487h4c0-.04.004-.058.005-.06l-.003.006c-.007.013.013-.034.139-.12l-2.242-3.313zM4.07 49.7c0 1.514.676 2.82 1.986 3.643l2.128-3.386a.449.449 0 01-.09-.072l-.001-.002-.002-.004a.694.694 0 01-.021-.179h-4zm2.007 3.657c1.036.633 2.446 1.046 4.04 1.34l.725-3.934c-1.445-.266-2.275-.573-2.68-.82l-2.085 3.414zm4.06 1.343c1.628.284 2.806.635 3.601 1.01l1.704-3.62c-1.245-.585-2.808-1.014-4.618-1.33l-.688 3.94zm3.644 1.03c.742.327 1.186.73 1.46 1.161l3.378-2.142c-.766-1.208-1.881-2.086-3.22-2.678l-1.618 3.658zm1.472 1.18c.24.37.457 1.017.457 2.12h4c0-1.577-.303-3.07-1.103-4.3l-3.354 2.18zm.457 2.12c0 .85-.233 1.534-.68 2.13l3.2 2.4c.993-1.324 1.48-2.86 1.48-4.53h-4zm-.684 2.136c-.473.635-1.126 1.159-2.022 1.554l1.613 3.66c1.463-.645 2.69-1.581 3.617-2.825l-3.208-2.39zm-1.996 1.543c-.919.389-1.921.591-3.03.591v4c1.611 0 3.149-.298 4.59-.909l-1.56-3.683zM50.65 44.51l-1.414 1.414.04.04.04.037 1.334-1.491zm.06 19.98l1.415 1.414.02-.02.02-.02-1.455-1.374zm-2.73 0l-1.414 1.414.02.02.021.02 1.373-1.454zm-.51-13.41h2v-6.706l-3.673 5.61 1.673 1.096zm-4.95 7.56l1.537 1.28.074-.088.063-.096-1.674-1.096zm-.69.6l.95 1.76.05-.026.05-.03-1.049-1.704zm-.81.18l.143-1.995-.148-.01-.148.01.153 1.995zm-.78-.18l-1.048 1.703.05.03.05.028.948-1.761zm-.69-.6l-1.69 1.069.07.11.084.101 1.536-1.28zm-4.95-7.83l1.69-1.069-3.69-5.837v6.906h2zm-2.97 13.68l-1.494 1.329.018.021.02.02 1.456-1.37zm.06-19.98l-1.375-1.452-.02.019-.019.019 1.414 1.414zm2.25-.3L33 45.975l.046.025.049.022.845-1.812zm.69.57l1.677-1.09-.006-.01-.007-.01-1.664 1.11zm6.54 10.05l-1.676 1.09 1.654 2.542 1.685-2.52-1.663-1.112zm6.72-10.05l1.663 1.112.002-.003-1.665-1.109zm.63-.57l.949 1.76.022-.011.022-.013-.993-1.736zm.84 1.76l-.018-.003a.298.298 0 01-.103-.042c-.01-.007-.01-.009-.003 0l2.829-2.83a3.759 3.759 0 00-2.705-1.125v4zm-.043.03s-.01-.008-.025-.028a.401.401 0 01-.044-.076c-.028-.066-.028-.107-.028-.096h4a3.654 3.654 0 00-1.236-2.78L49.317 46zm-.097-.2v17.37h4V45.8h-4zm0 17.37v.026c0-.003.002-.012.007-.027a.222.222 0 01.02-.04c.007-.01.011-.014.01-.012l2.907 2.746a3.849 3.849 0 001.056-2.693h-4zm.076-.094a.335.335 0 01.115-.074c.035-.014.027-.002-.05-.002v4c.995 0 1.987-.319 2.764-1.096l-2.829-2.828zM49.36 63a.442.442 0 01-.072-.005c-.01-.001-.009-.002 0 .002a.21.21 0 01.066.039l-2.747 2.908c.78.737 1.755 1.056 2.753 1.056v-4zm.035.076a.346.346 0 01.069.108c.015.04.006.045.006-.014h-4c0 1 .334 1.972 1.096 2.734l2.829-2.828zm.075.094V51.08h-4v12.09h4zm-3.673-13.186l-4.95 7.56 3.347 2.192 4.95-7.56-3.347-2.192zm-4.813 7.376a.813.813 0 01-.202.177l2.097 3.406c.449-.276.842-.62 1.178-1.023l-3.073-2.56zm-.102.12a.578.578 0 01.28-.054l-.284 3.989a3.458 3.458 0 001.9-.414l-1.896-3.522zm-.015-.054c.077-.006.15 0 .213.015a.448.448 0 01.109.038l-1.897 3.522c.551.297 1.19.466 1.882.413l-.307-3.988zm.422.11a.815.815 0 01-.202-.176l-3.073 2.56c.335.403.73.747 1.178 1.023l2.097-3.406zm-.048.035l-4.95-7.83-3.381 2.138 4.95 7.83 3.38-2.138zM32.6 50.81v12.36h4V50.81h-4zm0 12.36c0 .072-.011.081 0 .051a.297.297 0 01.063-.102l2.913 2.742c.724-.77 1.023-1.727 1.023-2.691h-4zm.063-.05a.462.462 0 01.151-.1c.061-.026.086-.02.045-.02v4c1.002 0 1.974-.35 2.717-1.14l-2.913-2.74zm.196-.12c-.02 0 .017-.003.084.025.07.029.12.07.143.094l-2.913 2.742C30.9 66.633 31.852 67 32.859 67v-4zm.265.161l.01.015.015.03.003.01a.294.294 0 01-.003-.046h-4c0 .968.313 1.892.986 2.649l2.99-2.658zm.025.009V45.8h-4v17.37h4zm0-17.37l-.002.018a.298.298 0 01-.043.104c-.006.01-.008.01 0 .002l-2.829-2.828A3.759 3.759 0 0029.15 45.8h4zm-.084.162c.012-.012.017-.014.013-.012a.142.142 0 01-.05.02h.011v-4a3.896 3.896 0 00-2.725 1.088l2.75 2.904zm-.026.008a.313.313 0 01-.065-.008c-.011-.003-.003-.002.024.013l1.883-3.53a3.894 3.894 0 00-1.842-.475v4zm.055.052c.013.007-.002.001-.03-.023a.514.514 0 01-.099-.11l3.328-2.218a3.632 3.632 0 00-1.508-1.273l-1.691 3.624zm-.14-.151l6.54 10.05 3.352-2.182-6.54-10.05-3.353 2.182zm9.878 10.07l6.72-10.05-3.325-2.223-6.72 10.05 3.325 2.224zm6.721-10.052a.288.288 0 01-.085.082l-1.897-3.522a3.72 3.72 0 00-1.346 1.222l3.328 2.218zm-.041.057c.015-.008.007-.002-.023.007a.479.479 0 01-.13.017v-4c-.678 0-1.296.197-1.832.504l1.985 3.473zM83.73 59.96l1.762.946.005-.01-1.767-.936zm-3.66 3.9l-1.049-1.703-.01.006 1.058 1.697zm-10.47 0l-1.059 1.697.01.006L69.6 63.86zm-3.63-3.9l-1.776.92.006.013.007.013 1.763-.946zm0-10.89l-1.768-.937-.004.008 1.772.929zm3.63-3.93l-1.049-1.703-.01.006L69.6 45.14zm10.47 0l-1.059 1.697.01.006 1.048-1.703zm3.66 3.93l-1.768.937.005.009 1.763-.946zm-3.39 1.8l-1.796.881.003.007.004.006 1.788-.894zm-8.76-2.61l1.1 1.67.009-.006-1.11-1.664zm-2.22 2.58l-1.796-.881-.006.013-.007.013 1.808.855zm0 7.32l-1.809.855.007.013.006.013 1.796-.881zm2.22 2.61l-1.126 1.653.02.014.02.013 1.085-1.68zm6.51-.03l1.109 1.664-1.11-1.664zm2.25-2.58l1.788.894.004-.006.003-.007-1.795-.881zm2.71-3.66c0 1.672-.369 3.167-1.088 4.523l3.535 1.874c1.04-1.964 1.552-4.109 1.552-6.397h-4zm-1.083 4.514a8.101 8.101 0 01-2.946 3.143l2.097 3.406a12.1 12.1 0 004.374-4.657l-3.525-1.892zm-2.956 3.149c-1.2.748-2.569 1.137-4.162 1.137v4c2.288 0 4.399-.571 6.279-1.743l-2.117-3.394zM74.85 63.3c-1.592 0-2.975-.389-4.201-1.143l-2.097 3.406c1.894 1.166 4.011 1.737 6.298 1.737v-4zm-4.191-1.137c-1.236-.77-2.207-1.808-2.926-3.149l-3.525 1.892c1.04 1.94 2.49 3.502 4.334 4.651l2.117-3.394zm-2.913-3.123c-.704-1.359-1.066-2.86-1.066-4.54h-4c0 2.28.499 4.419 1.515 6.38l3.551-1.84zM66.68 54.5c0-1.68.362-3.167 1.062-4.501l-3.543-1.858c-1.02 1.946-1.518 4.078-1.518 6.359h4zm1.057-4.493c.722-1.36 1.692-2.403 2.922-3.17l-2.117-3.394c-1.85 1.153-3.3 2.73-4.339 4.69l3.534 1.874zm2.912-3.164c1.225-.754 2.609-1.143 4.201-1.143v-4c-2.287 0-4.404.571-6.298 1.737l2.097 3.406zM74.85 45.7c1.593 0 2.962.389 4.163 1.137l2.115-3.394C79.25 42.27 77.139 41.7 74.85 41.7v4zm4.172 1.143c1.248.768 2.224 1.81 2.941 3.164l3.535-1.874c-1.043-1.966-2.508-3.544-4.38-4.696l-2.096 3.406zm2.946 3.173c.714 1.33 1.082 2.812 1.082 4.484h4c0-2.288-.511-4.426-1.557-6.376l-3.525 1.892zM83.15 54.5c0-1.616-.327-3.137-1.02-4.524l-3.578 1.788c.386.773.598 1.672.598 2.736h4zm-1.014-4.511c-.686-1.397-1.664-2.545-2.936-3.393l-2.219 3.328c.648.432 1.17 1.024 1.564 1.827l3.59-1.762zM79.2 46.596c-1.302-.868-2.771-1.296-4.35-1.296v4c.822 0 1.513.212 2.131.624l2.219-3.328zM74.85 45.3c-1.59 0-3.071.424-4.379 1.296l2.219 3.328c.612-.408 1.311-.624 2.16-.624v-4zm-4.37 1.29c-1.264.834-2.232 1.978-2.915 3.369l3.59 1.762c.398-.809.91-1.385 1.527-1.791l-2.203-3.34zm-2.928 3.395c-.658 1.394-.972 2.91-.972 4.515h4c0-1.075.207-1.999.589-2.805l-3.617-1.71zM66.58 54.5c0 1.605.314 3.121.972 4.515l3.617-1.71c-.382-.806-.588-1.73-.588-2.805h-4zm.985 4.541c.68 1.386 1.642 2.532 2.89 3.382l2.251-3.306c-.632-.43-1.15-1.024-1.55-1.838l-3.59 1.762zm2.93 3.41c1.306.842 2.778 1.249 4.355 1.249v-4c-.862 0-1.57-.213-2.184-.61l-2.17 3.36zM74.85 63.7c1.579 0 3.048-.428 4.35-1.296l-2.219-3.328c-.618.412-1.309.624-2.13.624v4zm4.35-1.296c1.263-.842 2.241-1.973 2.93-3.35l-3.578-1.788c-.392.783-.914 1.372-1.57 1.81l2.218 3.328zm2.936-3.363c.687-1.399 1.014-2.924 1.014-4.541h-4c0 1.063-.212 1.978-.605 2.779l3.59 1.762zm34.358.919l1.762.946.005-.01-1.767-.936zm-3.66 3.9l-1.048-1.703-.01.006 1.058 1.697zm-10.47 0l-1.058 1.697.01.006 1.048-1.703zm-3.63-3.9l-1.776.92.007.013.007.013 1.762-.946zm0-10.89l-1.767-.937-.004.008 1.771.929zm3.63-3.93l-1.048-1.703-.01.006 1.058 1.697zm10.47 0l-1.058 1.697.01.006 1.048-1.703zm3.66 3.93l-1.767.937.005.009 1.762-.946zm-3.39 1.8l-1.795.881.003.007.003.006 1.789-.894zm-8.76-2.61l1.101 1.67.009-.006-1.11-1.664zm-2.22 2.58l-1.795-.881-.007.013-.006.013 1.808.855zm0 7.32l-1.808.855.006.013.007.013 1.795-.881zm2.22 2.61l-1.125 1.653.02.014.02.013 1.085-1.68zm6.51-.03l1.11 1.664-1.11-1.664zm2.25-2.58l1.789.894.003-.006.003-.007-1.795-.881zm2.71-3.66c0 1.672-.368 3.167-1.087 4.523l3.534 1.874c1.041-1.964 1.553-4.109 1.553-6.397h-4zm-1.082 4.514a8.104 8.104 0 01-2.946 3.143l2.096 3.406a12.096 12.096 0 004.374-4.657l-3.524-1.892zm-2.956 3.149c-1.2.748-2.569 1.137-4.162 1.137v4c2.287 0 4.399-.571 6.278-1.743l-2.116-3.394zm-4.162 1.137c-1.593 0-2.976-.389-4.202-1.143l-2.096 3.406c1.894 1.166 4.011 1.737 6.298 1.737v-4zm-4.192-1.137c-1.236-.77-2.206-1.808-2.926-3.149l-3.524 1.892c1.04 1.94 2.49 3.502 4.334 4.651l2.116-3.394zm-2.912-3.123c-.704-1.359-1.066-2.86-1.066-4.54h-4c0 2.28.498 4.419 1.514 6.38l3.552-1.84zm-1.066-4.54c0-1.68.362-3.167 1.061-4.501l-3.542-1.858c-1.02 1.946-1.519 4.078-1.519 6.359h4zm1.057-4.493c.721-1.36 1.691-2.403 2.921-3.17l-2.116-3.394c-1.85 1.153-3.3 2.73-4.339 4.69l3.534 1.874zm2.911-3.164c1.226-.754 2.609-1.143 4.202-1.143v-4c-2.287 0-4.404.571-6.298 1.737l2.096 3.406zm4.202-1.143c1.593 0 2.962.389 4.162 1.137l2.116-3.394c-1.879-1.172-3.991-1.743-6.278-1.743v4zm4.172 1.143c1.248.768 2.224 1.81 2.941 3.164l3.534-1.874c-1.042-1.966-2.507-3.544-4.379-4.696l-2.096 3.406zm2.946 3.173c.714 1.33 1.082 2.812 1.082 4.484h4c0-2.288-.512-4.426-1.558-6.376l-3.524 1.892zm1.182 4.484c0-1.616-.327-3.137-1.021-4.524l-3.578 1.788c.387.773.599 1.672.599 2.736h4zm-1.015-4.511c-.685-1.397-1.663-2.545-2.935-3.393l-2.219 3.328c.648.432 1.169 1.024 1.564 1.827l3.59-1.762zm-2.935-3.393c-1.303-.868-2.772-1.296-4.35-1.296v4c.822 0 1.513.212 2.131.624l2.219-3.328zm-4.35-1.296c-1.591 0-3.071.424-4.379 1.296l2.219 3.328c.612-.408 1.311-.624 2.16-.624v-4zm-4.371 1.29c-1.263.834-2.231 1.978-2.914 3.369l3.59 1.762c.398-.809.91-1.385 1.526-1.791l-2.202-3.34zm-2.927 3.395c-.659 1.394-.972 2.91-.972 4.515h4c0-1.075.207-1.999.588-2.805l-3.616-1.71zm-.972 4.515c0 1.605.313 3.121.972 4.515l3.616-1.71c-.381-.806-.588-1.73-.588-2.805h-4zm.985 4.541c.68 1.386 1.641 2.532 2.89 3.382l2.251-3.306c-.632-.43-1.151-1.024-1.551-1.838l-3.59 1.762zm2.93 3.41c1.306.842 2.777 1.249 4.355 1.249v-4c-.862 0-1.57-.213-2.185-.61l-2.17 3.36zm4.355 1.249c1.578 0 3.047-.428 4.35-1.296l-2.219-3.328c-.618.412-1.309.624-2.131.624v4zm4.35-1.296c1.263-.842 2.241-1.973 2.929-3.35l-3.578-1.788c-.392.783-.914 1.372-1.57 1.81l2.219 3.328zm2.935-3.363c.687-1.399 1.015-2.924 1.015-4.541h-4c0 1.063-.212 1.978-.605 2.779l3.59 1.762zm30.893-14.561l-1.371 1.456 1.371-1.456zm0 2.52l1.323 1.5.024-.022.024-.022L145.792 47zm-6.03.45v-2h-2v2h2zm-.57 17.04l1.333 1.49.022-.019.02-.02-1.375-1.451zm-2.79 0l-1.414 1.414.02.02.021.02 1.373-1.454zm-.54-17.04h2v-2h-2v2zm-6.03-.48l-1.371 1.456 1.371-1.456zm0-2.49l-1.329-1.495-.021.02-.021.019 1.371 1.456zm14.64 1.52c.072 0 .081.01.051 0a.299.299 0 01-.102-.064l2.742-2.912c-.769-.724-1.727-1.024-2.691-1.024v4zm-.051-.064a.417.417 0 01-.101-.15c-.024-.062-.018-.086-.018-.046h4c0-1.002-.35-1.973-1.139-2.716l-2.742 2.912zm-.119-.196c0 .04-.006.016.018-.045a.464.464 0 01.101-.151l2.742 2.912c.789-.743 1.139-1.714 1.139-2.716h-4zm.167-.24a.294.294 0 01.093-.056c.018-.006-.005.006-.09.006v4c.929 0 1.87-.269 2.643-.95l-2.646-3zm.003-.05h-4.71v4h4.71v-4zm-6.71 2v15.72h4V47.45h-4zm0 15.72c0 .008-.001.002.002-.013a.281.281 0 01.048-.112c.009-.012.012-.014.004-.007l2.751 2.904a3.746 3.746 0 001.195-2.772h-4zm.096-.17l.003-.002a.076.076 0 01.013-.006l-.015.003a.46.46 0 01-.077.005v4c1 0 1.96-.318 2.743-1.02L137.858 63zm-.076 0a.457.457 0 01-.073-.005c-.01-.001-.008-.002.001.002a.201.201 0 01.065.039l-2.746 2.908c.78.737 1.754 1.056 2.753 1.056v-4zm.034.076l.007.01a.284.284 0 01.038.09c.002.01.001.008.001-.006h-4c0 1.038.382 1.99 1.126 2.734l2.828-2.828zm.046.094V47.45h-4v15.72h4zm-2-17.72h-4.71v4h4.71v-4zm-4.71 0c-.072 0-.082-.01-.052 0a.303.303 0 01.103.064l-2.742 2.912c.769.724 1.727 1.024 2.691 1.024v-4zm.051.064a.417.417 0 01.1.15c.025.062.019.086.019.046h-4c0 1.002.35 1.973 1.139 2.716l2.742-2.912zm.119.196c0-.02.003.017-.025.084a.431.431 0 01-.094.142l-2.742-2.912c-.772.727-1.139 1.678-1.139 2.686h4zm-.161.265l-.015.01a.18.18 0 01-.031.015c-.009.003-.013.003-.009.003a.291.291 0 01.046-.003v-4c-.968 0-1.892.313-2.649.985l2.658 2.99zm-.009.025h13.32v-4h-13.32v4zm44.829 18.49l1.373 1.454.021-.02.02-.02-1.414-1.414zm-2.67 0l-1.414 1.414.02.02.021.02 1.373-1.454zm-.54-8.31h2v-2h-2v2zm-9.57 0v-2h-2v2h2zm-.57 8.31l1.334 1.49.021-.019.021-.02-1.376-1.451zm-2.67 0l-1.454 1.373.039.042.042.039 1.373-1.454zm.03-19.95l1.373 1.454.021-.02.02-.02-1.414-1.414zm2.67 0l-1.414 1.414.02.02.021.02 1.373-1.454zm.54 8.19h-2v2h2v-2zm9.57 0v2h2v-2h-2zm.57-8.19l1.334 1.49.021-.019.021-.02-1.376-1.451zm1.32 1.46c.078 0 .086.011.051-.002a.327.327 0 01-.115-.074l2.828-2.828c-.777-.777-1.768-1.096-2.764-1.096v4zm-.064-.076a.302.302 0 01-.069-.108c-.016-.04-.007-.045-.007.014h4c0-1-.333-1.972-1.096-2.734l-2.828 2.828zm-.076-.094v17.34h4V45.83h-4zm0 17.34c0 .014-.001.015.001.006a.28.28 0 01.038-.09l.007-.01 2.828 2.828a3.794 3.794 0 001.126-2.734h-4zm.087-.134a.19.19 0 01.065-.04.457.457 0 01-.072.004v4c.999 0 1.973-.319 2.753-1.056l-2.746-2.908zm-.007-.036h-.002a.234.234 0 01.08.033c.009.006.011.008.005.003l-2.746 2.908A3.811 3.811 0 00174.601 67v-4zm.124.076c-.004-.005 0-.002.008.01a.226.226 0 01.024.047.237.237 0 01.014.043v-.006h-4c0 1.038.382 1.99 1.126 2.734l2.828-2.828zm.046.094v-6.99h-4v6.99h4zm-2-8.99h-9.57v4h9.57v-4zm-11.57 2v6.99h4v-6.99h-4zm0 6.99c0 .008 0 .002.003-.013a.281.281 0 01.048-.112c.008-.012.011-.014.004-.007l2.751 2.904a3.749 3.749 0 001.194-2.772h-4zm.097-.17l-.019.015a.099.099 0 01.016-.008l.014-.005.01-.002h-.008v4a3.92 3.92 0 002.654-1.02L161.298 63zm.013 0a.285.285 0 01-.049-.003c-.004 0 .002 0 .013.005a.2.2 0 01.059.034l-2.746 2.908c.766.724 1.723 1.056 2.723 1.056v-4zm.104.117l.009.013a.156.156 0 01.02.04.094.094 0 01.008.026l-.001-.026h-4c0 1.002.347 1.942 1.056 2.693l2.908-2.746zm.036.053V45.83h-4v17.34h4zm0-17.34c0-.026.004.003-.02.06a.34.34 0 01-.067.104l-2.746-2.908c-.782.739-1.167 1.705-1.167 2.744h4zm-.046.124a.263.263 0 01-.07.043c-.014.006-.021.007-.018.006a.333.333 0 01.054-.003v-4c-1.032 0-2.02.351-2.794 1.126l2.828 2.828zm-.034.046l-.018-.003a.303.303 0 01-.104-.042c-.009-.007-.01-.009-.002 0l2.828-2.83A3.758 3.758 0 00161.371 42v4zm-.083-.006a.394.394 0 01-.067-.104c-.023-.057-.02-.086-.02-.06h4c0-1.04-.385-2.005-1.167-2.744l-2.746 2.908zm-.087-.164v6.9h4v-6.9h-4zm2 8.9h9.57v-4h-9.57v4zm11.57-2v-6.9h-4v6.9h4zm0-6.9c0-.011.001.03-.028.096a.381.381 0 01-.068.105l-2.667-2.981a3.653 3.653 0 00-1.237 2.78h4zm-.054.162a.106.106 0 01.02-.018.201.201 0 01-.063.024l-.013.002v-4a3.86 3.86 0 00-2.695 1.088l2.751 2.904zm19.477 18.498l1.333 1.49.021-.019.021-.02-1.375-1.451zm-2.67 0l-1.454 1.373.039.042.041.039 1.374-1.454zm.03-19.95l1.373 1.454.021-.02.02-.02-1.414-1.414zm2.67 0l-1.415 1.414.021.02.02.02 1.374-1.454zm-1.46 18.63c0 .008-.001.002.002-.013a.281.281 0 01.048-.112c.009-.012.012-.014.004-.007l2.751 2.904a3.746 3.746 0 001.195-2.772h-4zm.096-.17a.084.084 0 01-.019.015.133.133 0 01.03-.012l.011-.003h-.008v4a3.917 3.917 0 002.653-1.02L192.86 63zm.014 0a.315.315 0 01-.05-.003c-.004 0 .002 0 .014.005a.193.193 0 01.059.034l-2.747 2.908c.767.724 1.723 1.056 2.724 1.056v-4zm.104.117l.009.013a.271.271 0 01.02.04l.008.026a.148.148 0 01-.001-.026h-4c0 1.002.346 1.942 1.056 2.693l2.908-2.746zm.036.053V45.83h-4v17.34h4zm0-17.34c0-.026.003.003-.02.06a.394.394 0 01-.067.104l-2.747-2.908c-.782.739-1.166 1.705-1.166 2.744h4zm-.046.124a.157.157 0 01-.026.02.206.206 0 01-.045.024l-.017.005a.333.333 0 01.054-.003v-4c-1.033 0-2.02.351-2.795 1.126l2.829 2.828zm-.034.046l-.019-.003a.295.295 0 01-.103-.042c-.01-.007-.01-.009-.003 0l2.829-2.83A3.76 3.76 0 00192.934 42v4zm-.084-.006a.393.393 0 01-.066-.104c-.024-.057-.02-.086-.02-.06h4c0-1.04-.385-2.005-1.167-2.744l-2.747 2.908zm-.086-.164v17.34h4V45.83h-4zm29.681 16.26l-1.454 1.373.04.042.041.039 1.373-1.454zm0 2.43l-1.328-1.495-.022.02-.02.019 1.37 1.456zm-12.66-.03l-1.454 1.373.04.042.041.039 1.373-1.454zm0-19.95l-1.414-1.414 1.414 1.414zm12.66-.03l-1.414 1.414.042.042.044.039 1.328-1.495zm.03 2.49l1.324 1.5.024-.022.023-.022L222.475 47zm-9.45.45v-2h-2v2h2zm0 5.1h-2v2h2v-2zm8.07.51l-1.414 1.414.042.042.044.039 1.328-1.495zm.03 2.49l1.324 1.5.024-.022.023-.022-1.371-1.456zm-8.1.45v-2h-2v2h2zm0 5.55h-2v2h2v-2zm8.13 2c.026 0-.003.004-.059-.02a.378.378 0 01-.105-.067l2.908-2.746c-.738-.782-1.704-1.167-2.744-1.167v4zm-.083-.006c.014.014-.015-.01-.045-.078a.45.45 0 01-.042-.176h4c0-1.056-.44-1.968-1.166-2.654l-2.747 2.908zm-.087-.254c0 .006.001-.045.034-.121a.424.424 0 01.098-.144l2.657 2.99c.805-.716 1.211-1.678 1.211-2.725h-4zm.09-.226a.276.276 0 01.095-.058c.036-.014.039-.006-.015-.006v4c.967 0 1.907-.314 2.661-1.024l-2.741-2.912zm.08-.064h-10.05v4h10.05v-4zm-10.05 0l-.026-.001a.24.24 0 01.067.028l.013.009-2.747 2.908A3.849 3.849 0 00211.105 67v-4zm.134.117c-.002-.002.003.002.01.013a.197.197 0 01.019.04c.006.014.008.023.009.026 0 .003-.002-.005-.002-.026h-4c0 1.002.347 1.942 1.056 2.693l2.908-2.746zm.036.053V45.83h-4v17.34h4zm0-17.34c0-.04.006-.024-.012.023a.39.39 0 01-.033.063.242.242 0 01-.03.038l-2.829-2.828c-.747.747-1.096 1.701-1.096 2.704h4zm-.075.124c.004-.004.001 0-.011.007a.284.284 0 01-.09.038c-.009.002-.008.001.006.001v-4c-1.037 0-1.99.382-2.734 1.126l2.829 2.828zm-.095.046h10.05v-4h-10.05v4zm10.05 0c.04 0 .024.006-.022-.013a.347.347 0 01-.102-.063l2.829-2.828c-.748-.748-1.702-1.096-2.705-1.096v4zm-.038.005a.44.44 0 01-.105-.152c-.03-.071-.027-.11-.027-.083h4c0-1.04-.387-2.023-1.211-2.755l-2.657 2.99zm-.132-.235c0 .02-.002-.017.025-.084a.43.43 0 01.095-.142l2.741 2.912c.772-.727 1.139-1.678 1.139-2.686h-4zm.167-.27a.294.294 0 01.093-.056c.018-.006-.004.006-.09.006v4c.93 0 1.871-.269 2.644-.95l-2.647-3zm.003-.05h-8.13v4h8.13v-4zm-10.13 2v5.1h4v-5.1h-4zm2 7.1h6.78v-4h-6.78v4zm6.78 0c.04 0 .024.006-.022-.013a.347.347 0 01-.102-.063l2.829-2.828c-.748-.748-1.702-1.096-2.705-1.096v4zm-.038.005a.44.44 0 01-.105-.152c-.03-.071-.027-.11-.027-.083h4c0-1.04-.387-2.023-1.211-2.755l-2.657 2.99zm-.132-.235c0 .02-.002-.017.025-.084a.43.43 0 01.095-.142l2.741 2.912c.772-.727 1.139-1.678 1.139-2.686h-4zm.167-.27a.294.294 0 01.093-.055c.018-.007-.004.005-.09.005v4c.93 0 1.871-.269 2.644-.95l-2.647-3zm.003-.05h-6.78v4h6.78v-4zm-8.78 2v5.55h4V56h-4zm2 7.55h8.13v-4h-8.13v4z" fill="#FEA3AC"/><path d="M41.833 20.358c-.26 0-.513.05-.757.147-.228.098-.456.203-.683.317-.212.098-.44.196-.684.293a2.161 2.161 0 01-.732.122c-.472 0-.708-.26-.708-.78v-.05c0-.016.008-.032.024-.049l3.687-1.123c.048-.716.056-1.424.024-2.124-.016-.716-.033-1.4-.049-2.05a23.569 23.569 0 01.025-1.88 8.343 8.343 0 01.293-1.636c.146-.505.366-.944.659-1.318.309-.375.732-.684 1.27-.928.178 0 .373.024.585.073.228.049.431.13.61.244.18.098.334.236.464.415.13.163.196.35.196.562-.717 0-1.286.13-1.71.39-.406.244-.715.57-.927.977-.212.407-.342.887-.39 1.44-.05.537-.066 1.107-.05 1.71.033.585.074 1.18.123 1.782.065.602.097 1.172.097 1.709a7.52 7.52 0 001.611-.171 45.23 45.23 0 001.587-.366 19.097 19.097 0 011.612-.367 7.741 7.741 0 011.611-.17c.39 0 .586.186.586.56 0 .147-.138.278-.415.392-.277.113-.635.22-1.074.317l-1.465.268a27.88 27.88 0 00-1.611.293 25.26 25.26 0 00-1.465.318c-.456.114-.814.252-1.075.415a7.868 7.868 0 00-.024 1.855c.081.602.18 1.205.293 1.807.13.586.252 1.18.366 1.782a9.27 9.27 0 01.22 1.758c0 .146-.032.31-.098.488-.049.163-.154.244-.317.244a.394.394 0 01-.317-.146 2.189 2.189 0 01-.22-.317 4.843 4.843 0 01-.122-.367 7.127 7.127 0 01-.073-.317l-.318-1.685a79.463 79.463 0 01-.268-1.562 51.176 51.176 0 01-.171-1.563c-.033-.52-.057-1.09-.073-1.709h-.147zm7.251-1.684l1.44 5.932h.293c.05-.52.139-1.074.269-1.66.146-.586.342-1.163.586-1.733.244-.586.529-1.148.854-1.685a7.653 7.653 0 011.148-1.416 5.244 5.244 0 011.416-.976 4.199 4.199 0 011.758-.366c0 .39-.163.732-.489 1.025a7.23 7.23 0 01-1.123.854c-.44.277-.895.57-1.367.88a3.516 3.516 0 00-1.074 1.122c-.277.44-.505.953-.684 1.538-.162.57-.3 1.164-.415 1.783a22.46 22.46 0 00-.22 1.83c-.048.603-.089 1.148-.121 1.637a4 4 0 01-.318.415.489.489 0 01-.39.17.805.805 0 01-.245-.048c-.097-.05-.162-.139-.195-.269l-1.758-9.033h.635zm9.35 3.662a5.628 5.628 0 01-1.147.537c-.39.114-.708.033-.952-.244 0-.31.106-.513.317-.61.212-.114.448-.204.708-.269.277-.065.546-.146.806-.244a.88.88 0 00.562-.586c.097-.326.187-.716.268-1.172a8.7 8.7 0 01.342-1.318 2.7 2.7 0 01.635-1.05c.276-.293.659-.44 1.147-.44.277 0 .619.098 1.026.293.423.18.821.4 1.196.66.374.26.692.537.952.83.26.293.39.561.39.805 0 .114-.016.22-.048.318-.016.097-.098.179-.244.244l-4.81 1.66-.024.122c0 .065-.008.155-.025.269v.537c0 .325.025.732.073 1.22.05.472.147.936.293 1.392.163.44.383.822.66 1.148.276.325.65.488 1.123.488a.885.885 0 00.44-.098 7.14 7.14 0 00.365-.244c.13-.098.253-.18.366-.244a.813.813 0 01.44-.122c0 .244-.057.48-.17.708a1.738 1.738 0 01-.416.561 2.17 2.17 0 01-.61.39 1.723 1.723 0 01-.684.147c-.618 0-1.115-.211-1.49-.634a4.871 4.871 0 01-.878-1.563 10.788 10.788 0 01-.415-1.88 134.02 134.02 0 01-.195-1.611zm2.98-4.321c-.294 0-.546.081-.758.244a2.02 2.02 0 00-.488.61 3.16 3.16 0 00-.293.806 4.39 4.39 0 00-.073.757 8.1 8.1 0 00.854-.05c.326-.032.643-.097.952-.195.31-.097.586-.22.83-.366.26-.163.44-.358.538-.586-.245-.39-.472-.691-.684-.903-.212-.212-.505-.317-.879-.317zm5.517 9.155c0-.195.016-.358.049-.488.032-.147.08-.244.146-.293.081-.065.17-.065.268 0 .114.049.253.179.416.39a12.568 12.568 0 002.246-.22 10.74 10.74 0 001.245-.317c.423-.13.79-.3 1.098-.512a2.97 2.97 0 00.782-.782 1.97 1.97 0 00.293-1.074c0-.407-.188-.708-.562-.903-.374-.196-.854-.342-1.44-.44a36.28 36.28 0 00-1.856-.317 10.4 10.4 0 01-1.83-.488 4.052 4.052 0 01-1.441-.953c-.375-.423-.562-1.009-.562-1.757 0-.521.09-.96.269-1.319.179-.358.48-.691.903-1 .18-.147.496-.375.952-.684l1.44-1.026c.522-.374 1.01-.716 1.466-1.025.455-.326.773-.553.952-.684h.122a.667.667 0 01.146-.024c.407 0 .61.195.61.586 0 .179-.146.374-.439.586-.293.195-.667.415-1.123.659-.44.244-.92.504-1.44.781-.505.277-.985.586-1.44.928-.44.325-.806.683-1.1 1.074a1.94 1.94 0 00-.439 1.22c0 .473.114.815.342 1.026.244.212.602.39 1.074.537.195.05.53.147 1.001.293.488.13 1.001.277 1.538.44.554.146 1.066.285 1.538.415.489.13.83.22 1.026.268.423.228.765.48 1.025.757.277.26.415.627.415 1.099 0 .456-.122.87-.366 1.245a3.906 3.906 0 01-.928 1.025A7.272 7.272 0 0172.01 27c-.489.228-.985.423-1.49.586-.504.146-1 .26-1.489.342a9.388 9.388 0 01-1.27.097c-.357 0-.585-.048-.683-.146-.097-.114-.146-.35-.146-.708zM75.524 9.2l1.05-.17 1.123 13.305c.114-.553.285-1.156.513-1.807a7.334 7.334 0 01.903-1.782c.39-.537.863-.952 1.416-1.245.57-.31 1.23-.39 1.978-.244.52.081.968.285 1.343.61.39.31.724.692 1 1.148.277.455.497.96.66 1.513.179.537.317 1.09.415 1.66.097.554.163 1.09.195 1.612.049.52.073.976.073 1.367 0 .342-.032.578-.097.708-.05.114-.196.17-.44.17-.114 0-.228-.007-.342-.023-.113-.033-.195-.13-.244-.293.033-.31.05-.717.05-1.221 0-.505-.033-1.026-.099-1.563a11.093 11.093 0 00-.268-1.611 5.776 5.776 0 00-.562-1.49 2.848 2.848 0 00-.903-1.05c-.374-.276-.822-.414-1.343-.414-.537 0-1.009.122-1.416.366a3.31 3.31 0 00-1 .903 5.116 5.116 0 00-.635 1.27 6.914 6.914 0 00-.342 1.416c0 .13-.017.342-.05.635-.015.276-.04.594-.072.952-.033.342-.057.716-.074 1.123l-.048 1.123c-.017.342-.033.651-.05.928v.61c-.048.163-.121.26-.219.293a2.101 2.101 0 01-.342.024c-.016 0-.065-.008-.146-.024h-.147L75.524 9.2zm25.318 17.944c.097-.406.211-.862.342-1.367.146-.52.276-1.066.39-1.635.114-.57.212-1.14.293-1.71.098-.585.147-1.139.147-1.66 0-.374-.098-.683-.293-.927a3.042 3.042 0 00-.757-.66 6.948 6.948 0 00-.977-.537 26.432 26.432 0 01-.976-.537 4.047 4.047 0 01-.733-.61 1.199 1.199 0 01-.293-.806v-.146a.672.672 0 00.025-.147c.276-.293.618-.667 1.025-1.123.423-.455.87-.895 1.343-1.318a9.189 9.189 0 011.514-1.074c.52-.31 1.025-.464 1.513-.464.033 0 .09.04.171.122.082.081.122.146.122.195v1.245c0 .896-.057 1.783-.171 2.662a24.24 24.24 0 00-.146 2.66v.465c0 .195.008.3.024.317l2.271 2.246c0 .016.024.033.073.049h.147c.211 0 .398-.05.561-.147.163-.097.317-.203.464-.317.163-.114.317-.22.464-.317.163-.098.342-.147.537-.147.407 0 .61.203.61.61 0 .228-.073.391-.22.489-.13.097-.292.187-.488.268l-.586.269a.86.86 0 00-.439.39l1.977 1.978c.033.016.009.098-.073.244a.825.825 0 01-.22.318c0 .016-.048.024-.146.024h-.098c-.016 0-.024-.008-.024-.024a8.96 8.96 0 01-.391-.342 21.166 21.166 0 00-.586-.513 15.836 15.836 0 00-.61-.537 2.946 2.946 0 00-.391-.317 1.098 1.098 0 00-.268-.147 4.268 4.268 0 00-.293-.122 4.257 4.257 0 00-.586.513l-.806.805-.879.928c-.293.31-.578.594-.854.854-.277.245-.529.456-.757.635-.228.163-.407.244-.537.244h-.073c-.017 0-.033-.008-.049-.024a2.053 2.053 0 01-.073-.17l-.098-.245-.098-.244a1.068 1.068 0 01-.024-.196zm-1.148-10.449c.391.423.798.822 1.221 1.197.439.374.895.716 1.367 1.025.017-.146.049-.415.098-.806.049-.407.098-.838.146-1.294.065-.455.122-.879.171-1.27.065-.406.114-.683.147-.83v-.17a1.13 1.13 0 00-.098-.464c-.049-.163-.155-.244-.317-.244-.261 0-.554.106-.879.317-.309.195-.602.44-.879.733a6.175 6.175 0 00-.684.927c-.195.326-.293.619-.293.88zm3.418 4.517c-.228.26-.398.561-.512.903a5.794 5.794 0 00-.245 1.05 12.18 12.18 0 00-.097 1.099v1.27c.016.113.024.178.024.195l2.808-2.54-1.978-1.977zm17.871-2.295v-.342l.049-.366a.674.674 0 01.171-.317.463.463 0 01.342-.123c.032 0 .081.009.146.025h.171c.017 1.155.074 2.344.171 3.564a19.47 19.47 0 00.659 3.54c.017-.179.057-.48.122-.903.082-.44.163-.895.245-1.367.097-.488.187-.944.268-1.367.098-.424.163-.725.195-.904a6.58 6.58 0 01.464-1.05 5.05 5.05 0 01.708-1.025c.293-.309.611-.561.952-.757a2.319 2.319 0 011.124-.293c.651 0 1.228.147 1.733.44a4.82 4.82 0 011.343 1.172 6.641 6.641 0 011.025 1.636c.277.602.505 1.22.684 1.855.179.635.309 1.245.39 1.831.082.586.122 1.107.122 1.563v.293a.936.936 0 01-.048.292.426.426 0 01-.123.22c-.048.049-.146.073-.292.073-.163 0-.302-.097-.416-.293a13.108 13.108 0 00-.146-1.416 17.508 17.508 0 00-.293-1.684 10.878 10.878 0 00-.488-1.758 6.367 6.367 0 00-.757-1.563 3.772 3.772 0 00-1.05-1.098c-.407-.293-.895-.44-1.465-.44-.455 0-.854.082-1.196.245-.326.162-.602.39-.83.683-.228.277-.415.61-.562 1.001-.13.375-.227.781-.293 1.22-.048.229-.114.636-.195 1.222-.081.585-.171 1.212-.268 1.88-.098.667-.188 1.293-.269 1.88a36.03 36.03 0 00-.122 1.22c-.049.163-.138.26-.269.293a1.326 1.326 0 01-.366.049.734.734 0 01-.122-.025c-.065 0-.098-.008-.098-.024l-1.391-8.472a3.42 3.42 0 00-.025-.268v-.342zm12.134 6.543c0-.472.049-1.058.147-1.758.114-.7.268-1.424.464-2.173.211-.765.472-1.53.781-2.295a12.18 12.18 0 011.098-2.05c.407-.619.871-1.115 1.392-1.49a2.867 2.867 0 011.709-.561c0 .228-.098.455-.293.683a5.838 5.838 0 01-.635.635c-.228.195-.464.39-.708.586-.244.18-.415.35-.512.513a10.132 10.132 0 00-1.05 1.684 14.903 14.903 0 00-.806 1.88 13.057 13.057 0 00-.537 1.978c-.13.667-.195 1.318-.195 1.953 0 .098.016.252.049.464.032.195.073.398.122.61.065.212.146.399.244.562.097.146.203.22.317.22h.073c.017 0 .033-.009.049-.025a7.46 7.46 0 001.099-1.587c.293-.57.545-1.156.757-1.758.211-.618.39-1.245.537-1.88.146-.634.293-1.261.439-1.88.049-.179.065-.447.049-.805 0-.358.016-.708.049-1.05.049-.342.138-.635.268-.879.131-.26.367-.39.708-.39.066 0 .139.008.22.024.098 0 .147.008.147.024l1.538 3.198c.423.863.781 1.58 1.074 2.149.293.57.529 1.017.708 1.343.179.325.309.578.391.757.097.162.162.276.195.341.032.05.049.09.049.122a5.517 5.517 0 01.073.903c.016.18.024.359.024.538.017.163.025.268.025.317-.163 0-.342-.008-.537-.024-.196-.016-.334-.122-.415-.317l-3.125-6.495-.269-.293a25.1 25.1 0 01-.293.953c-.13.455-.277.944-.439 1.464a264.89 264.89 0 00-.684 2.393 44.65 44.65 0 00-.391 1.025 9.08 9.08 0 01-.561 1.319c-.228.44-.488.822-.781 1.147-.293.326-.619.488-.977.488-.293 0-.537-.09-.732-.268a2.494 2.494 0 01-.489-.708 4.146 4.146 0 01-.293-.855 4.7 4.7 0 01-.073-.732zm14.82-5.103c-.359 0-.717.05-1.075.147-.358.098-.716.203-1.074.317-.342.098-.692.196-1.05.293-.342.082-.7.122-1.074.122a.958.958 0 01-.513-.122c-.13-.081-.195-.244-.195-.488 0-.195.049-.326.147-.39a.652.652 0 01.39-.123c.163-.016.326-.016.488 0 .179.017.318.008.415-.024.131-.033.367-.09.708-.171.359-.081.733-.163 1.124-.244.39-.082.756-.163 1.098-.244.358-.082.602-.147.733-.196v-.244a3.2 3.2 0 00.024-.39c.016-.147.024-.277.024-.391v-.269c0-.488-.032-.96-.097-1.416a43.296 43.296 0 00-.22-1.416l-.195-1.416a10.37 10.37 0 01-.098-1.416 2.1 2.1 0 01.049-.463c.049-.163.179-.245.391-.245.081 0 .162.025.244.074.097.032.154.105.171.22l.854 7.055c.016.016.033.024.049.024h.073c.163 0 .415-.04.757-.122.342-.081.724-.179 1.147-.293.424-.114.871-.236 1.343-.366.488-.13.952-.244 1.392-.342.439-.114.838-.195 1.196-.244.358-.065.635-.073.83-.024.065.016.171.097.318.244.146.13.236.228.268.293.033.163-.106.325-.415.488a8.374 8.374 0 01-1.221.44c-.488.13-1.033.252-1.635.366-.603.114-1.18.22-1.734.317-.537.082-1.001.163-1.391.244-.391.066-.627.114-.708.147v.488c0 .212-.009.448-.025.708v1.196c0 .83.057 1.644.171 2.442.114.781.171 1.57.171 2.368a.455.455 0 01-.098.293c-.065.065-.146.13-.244.195-.097.05-.195.098-.293.147l-.219.073a27.23 27.23 0 01-.293-1.904 67.952 67.952 0 01-.123-1.734c-.016-.57-.04-1.172-.073-1.806a64.84 64.84 0 00-.097-2.198h-.415zM157.775 28c-.309.114-.594.09-.854-.073-.244-.18-.464-.44-.659-.782a7.33 7.33 0 01-.513-1.196c-.146-.456-.26-.903-.342-1.343a13.463 13.463 0 01-.171-1.196c-.016-.358-.008-.618.025-.781 0-.163.008-.415.024-.757s.033-.724.049-1.147l.049-1.343c.032-.472.057-.928.073-1.367.016-.44.033-.822.049-1.148.016-.342.024-.594.024-.757.033 0 .057-.008.074-.024l.073-.024a.51.51 0 01.415.22c.114.146.211.284.293.414 0 .228-.008.635-.025 1.221v3.784c.017.586.025.993.025 1.22.016.196.049.505.097.929.066.406.147.83.245 1.27.097.422.227.813.39 1.171.179.342.399.537.659.586.684 0 1.254-.252 1.709-.757.472-.504.863-1.14 1.172-1.904.309-.765.554-1.587.733-2.466a51.9 51.9 0 00.488-2.515c.13-.78.244-1.432.342-1.953.114-.537.244-.83.39-.879l.586.122 1.367 9.449a.63.63 0 01.245.22c.065.097.122.203.171.317a.98.98 0 01.122.341c.032.114.048.196.048.245-.032.114-.13.236-.293.366-.162.13-.301.203-.415.22h-.146l-.147-.22a3.193 3.193 0 00-.17-.342 3.027 3.027 0 01-.171-.342 1.528 1.528 0 00-.074-.244 8.602 8.602 0 01-.17-.757 50.513 50.513 0 01-.147-1.123 126.63 126.63 0 01-.146-1.318c-.033-.472-.074-.92-.123-1.343-.032-.44-.073-.822-.122-1.147a4.212 4.212 0 00-.122-.757c-.081.374-.195.822-.341 1.343a17.61 17.61 0 01-.562 1.61c-.212.57-.456 1.132-.732 1.686a10.267 10.267 0 01-.953 1.513 6.018 6.018 0 01-1.147 1.172 3.19 3.19 0 01-1.392.586zm8.692-9.326l1.44 5.932h.293c.049-.52.139-1.074.269-1.66.146-.586.342-1.163.586-1.733.244-.586.529-1.148.854-1.685a7.627 7.627 0 011.148-1.416 5.238 5.238 0 011.416-.976 4.197 4.197 0 011.757-.366c0 .39-.162.732-.488 1.025a7.19 7.19 0 01-1.123.854c-.439.277-.895.57-1.367.88a3.516 3.516 0 00-1.074 1.122c-.277.44-.505.953-.684 1.538-.163.57-.301 1.164-.415 1.783a22.416 22.416 0 00-.22 1.83 137.88 137.88 0 00-.122 1.637 3.888 3.888 0 01-.317.415.49.49 0 01-.391.17.806.806 0 01-.244-.048.387.387 0 01-.195-.269l-1.758-9.033h.635zm8.325 6.787c0-.472.049-1.058.146-1.758.114-.7.269-1.424.464-2.173.212-.765.472-1.53.782-2.295a12.11 12.11 0 011.098-2.05c.407-.619.871-1.115 1.392-1.49a2.865 2.865 0 011.709-.561c0 .228-.098.455-.293.683a5.838 5.838 0 01-.635.635c-.228.195-.464.39-.708.586-.244.18-.415.35-.513.513-.39.504-.74 1.066-1.049 1.684-.31.603-.578 1.23-.806 1.88a13.057 13.057 0 00-.537 1.978 10.2 10.2 0 00-.196 1.953c0 .098.017.252.049.464.033.195.074.398.122.61.065.212.147.399.245.562.097.146.203.22.317.22h.073c.016 0 .033-.009.049-.025a7.497 7.497 0 001.099-1.587c.293-.57.545-1.156.756-1.758.212-.618.391-1.245.538-1.88.146-.634.293-1.261.439-1.88.049-.179.065-.447.049-.805 0-.358.016-.708.049-1.05.048-.342.138-.635.268-.879.13-.26.366-.39.708-.39.065 0 .139.008.22.024.098 0 .146.008.146.024.603 1.253 1.115 2.32 1.539 3.198.423.863.781 1.58 1.074 2.149.293.57.529 1.017.708 1.343.179.325.309.578.39.757.098.162.163.276.196.341.032.05.049.09.049.122.016.066.032.188.048.367.017.162.025.341.025.537.016.179.024.358.024.537.016.163.025.268.025.317-.163 0-.342-.008-.538-.024-.195-.016-.333-.122-.415-.317l-3.125-6.495-.268-.293c-.049.18-.147.497-.293.953-.13.455-.277.944-.44 1.464a827.9 827.9 0 00-.415 1.44c-.13.457-.219.774-.268.953a44.65 44.65 0 00-.391 1.025 9.08 9.08 0 01-.561 1.319 5.47 5.47 0 01-.782 1.147c-.293.326-.618.488-.976.488a1.05 1.05 0 01-.733-.268 2.492 2.492 0 01-.488-.708 4.088 4.088 0 01-.293-.855 4.58 4.58 0 01-.073-.732zm10.986 1.978a60.37 60.37 0 00-.122-1.954l-.219-3.003a466.147 466.147 0 00-.22-3.515 181.9 181.9 0 00-.22-3.54 86.541 86.541 0 00-.22-3.003 67.202 67.202 0 01-.122-1.978v-.317c0-.374.187-.562.562-.562.032 0 .081.009.146.025h.147c.097 1.416.187 2.775.268 4.077l.244 3.882a245.745 245.745 0 00.611 7.91c.179.179.277.39.293.635.016.228.024.464.024.708 0 .114-.008.244-.024.39 0 .13-.025.26-.073.391a.882.882 0 01-.245.317.587.587 0 01-.39.122c-.147 0-.253-.057-.318-.17a2.209 2.209 0 01-.122-.415z" fill="#9A9A9A"/></svg>